<svg xmlns="http://www.w3.org/2000/svg" width="900" height="520" viewBox="0 0 900 520"><rect width="100%" height="100%" fill="white"/><text x="450" y="28" text-anchor="middle" font-family="Arial" font-size="20" font-weight="bold">Top 10 States by Merchandise Revenue</text><text x="210" y="80.245" text-anchor="end" font-family="Arial" font-size="12">SP</text><rect x="220" y="61.8" width="592.5925925925926" height="26.35" fill="#666666"/><text x="818.5925925925926" y="80.245" font-family="Arial" font-size="11">5.07M</text><text x="210" y="122.745" text-anchor="end" font-family="Arial" font-size="12">RJ</text><rect x="220" y="104.3" width="205.76789839799397" height="26.35" fill="#666666"/><text x="431.767898397994" y="122.745" font-family="Arial" font-size="11">1.76M</text><text x="210" y="165.245" text-anchor="end" font-family="Arial" font-size="12">MG</text><rect x="220" y="146.8" width="181.54219209359513" height="26.35" fill="#666666"/><text x="407.54219209359513" y="165.245" font-family="Arial" font-size="11">1.55M</text><text x="210" y="207.745" text-anchor="end" font-family="Arial" font-size="12">RS</text><rect x="220" y="189.3" width="85.23490707474207" height="26.35" fill="#666666"/><text x="311.23490707474207" y="207.745" font-family="Arial" font-size="11">0.73M</text><text x="210" y="250.245" text-anchor="end" font-family="Arial" font-size="12">PR</text><rect x="220" y="231.8" width="77.88730749844217" height="26.35" fill="#666666"/><text x="303.88730749844217" y="250.245" font-family="Arial" font-size="11">0.67M</text><text x="210" y="292.745" text-anchor="end" font-family="Arial" font-size="12">SC</text><rect x="220" y="274.3" width="59.2883547617706" height="26.35" fill="#666666"/><text x="285.2883547617706" y="292.745" font-family="Arial" font-size="11">0.51M</text><text x="210" y="335.245" text-anchor="end" font-family="Arial" font-size="12">BA</text><rect x="220" y="316.8" width="57.71812914437263" height="26.35" fill="#666666"/><text x="283.71812914437265" y="335.245" font-family="Arial" font-size="11">0.49M</text><text x="210" y="377.745" text-anchor="end" font-family="Arial" font-size="12">DF</text><rect x="220" y="359.3" width="34.67156282509633" height="26.35" fill="#666666"/><text x="260.6715628250963" y="377.745" font-family="Arial" font-size="11">0.30M</text><text x="210" y="420.245" text-anchor="end" font-family="Arial" font-size="12">GO</text><rect x="220" y="401.8" width="33.07400674861266" height="26.35" fill="#666666"/><text x="259.07400674861265" y="420.245" font-family="Arial" font-size="11">0.28M</text><text x="210" y="462.745" text-anchor="end" font-family="Arial" font-size="12">ES</text><rect x="220" y="444.3" width="31.414294107768153" height="26.35" fill="#666666"/><text x="257.4142941077681" y="462.745" font-family="Arial" font-size="11">0.27M</text></svg>